<svg width="1980" height="174" viewBox="0 0 1980 174" fill="none" xmlns="http://www.w3.org/2000/svg">
<rect y="42.3329" width="1980" height="131" fill="#5A100B"/>
<rect x="1124" y="42.3329" width="856" height="7" fill="#5A100B"/>
<circle cx="1440.5" cy="42.8329" r="12.5" fill="#5A100B"/>
<circle cx="1220.5" cy="41.8329" r="12.5" fill="#5A100B"/>
<circle cx="1295.5" cy="37.8329" r="12.5" fill="#5A100B"/>
<circle cx="1318.5" cy="38.8329" r="10.5" fill="#5A100B"/>
<ellipse cx="1306.5" cy="32.8329" rx="11.5" ry="15.5" fill="#5A100B"/>
<circle cx="1599.5" cy="40.8329" r="7.5" fill="#5A100B"/>
<circle cx="1481.5" cy="40.8329" r="7.5" fill="#5A100B"/>
<circle cx="1496.5" cy="39.8329" r="9.5" fill="#5A100B"/>
<circle cx="1465" cy="33.3329" r="16" fill="#5A100B"/>
<ellipse cx="1202" cy="36.8329" rx="12" ry="13.5" fill="#5A100B"/>
<circle cx="1517" cy="33.3329" r="16" fill="#5A100B"/>
<circle cx="1561" cy="36.3329" r="13" fill="#5A100B"/>
<ellipse cx="1539" cy="28.8329" rx="16" ry="20.5" fill="#5A100B"/>
<ellipse cx="1184.5" cy="41.8329" rx="11.5" ry="7.5" fill="#5A100B"/>
<circle cx="1650" cy="36.3329" r="13" fill="#5A100B"/>
<ellipse cx="1672" cy="37.3329" rx="13" ry="8" fill="#5A100B"/>
<ellipse cx="1693.5" cy="33.3329" rx="15.5" ry="15" fill="#5A100B"/>
<ellipse cx="1739.5" cy="34.3329" rx="15.5" ry="15" fill="#5A100B"/>
<path d="M1908 41.6488C1908 49.8278 1898.41 47.0789 1889.71 47.0789C1881.02 47.0789 1844 53.2834 1844 45.1043C1844 36.9252 1869.84 27.3329 1878.54 27.3329C1887.24 27.3329 1908 33.4697 1908 41.6488Z" fill="#5A100B"/>
<path d="M1792 45.0069C1792 53.2912 1779.56 48.9272 1771 48.9272C1762.44 48.9272 1745.56 48.2114 1745.56 39.9272C1745.56 31.6429 1762.44 25.9272 1771 25.9272C1779.56 25.9272 1792 36.7226 1792 45.0069Z" fill="#5A100B"/>
<ellipse cx="1719" cy="30.8329" rx="18" ry="18.5" fill="#5A100B"/>
<path d="M1980 38.8329C1980 49.0502 1973.94 49.3329 1964 49.3329C1954.06 49.3329 1946 41.0502 1946 30.8329C1946 20.6156 1956.56 15.8329 1966.5 15.8329C1976.44 15.8329 1980 28.6156 1980 38.8329Z" fill="#5A100B"/>
<ellipse cx="1911" cy="33.8329" rx="21" ry="15.5" fill="#5A100B"/>
<path d="M1973.11 39.8329C1973.11 46.7364 1957.81 46.3329 1945.11 46.3329C1932.4 46.3329 1922.11 40.7364 1922.11 33.8329C1922.11 26.9293 1936.3 21.8329 1949 21.8329C1961.7 21.8329 1973.11 32.9293 1973.11 39.8329Z" fill="#5A100B"/>
<ellipse cx="19.3389" cy="31.3329" rx="19.3389" ry="17" fill="#5A100B"/>
<ellipse cx="81.9058" cy="51.3329" rx="11.3758" ry="10" fill="#5A100B"/>
<ellipse cx="44.9344" cy="17.8329" rx="19.9077" ry="17.5" fill="#5A100B"/>
<ellipse cx="63.1357" cy="37.8329" rx="18.7701" ry="16.5" fill="#5A100B"/>
<ellipse cx="101.245" cy="47.3329" rx="19.3389" ry="17" fill="#5A100B"/>
<ellipse cx="183.15" cy="57.3329" rx="11.3758" ry="10" fill="#5A100B"/>
<ellipse cx="134.235" cy="43.8329" rx="21.614" ry="22.5" fill="#5A100B"/>
<ellipse cx="164.38" cy="50.8329" rx="18.7701" ry="16.5" fill="#5A100B"/>
<line x1="0.5" y1="31.3329" x2="0.5" y2="67.3329" stroke="#5A100B"/>
<line y1="66.8329" x2="186.563" y2="66.8329" stroke="#5A100B"/>
<rect y="51.3329" width="186.563" height="15" fill="#5A100B"/>
<rect y="32.3329" width="62.5669" height="19" fill="#5A100B"/>
</svg>
