<svg width="1997" height="324" viewBox="0 0 1997 324" fill="none" xmlns="http://www.w3.org/2000/svg">
<g filter="url(#filter0_d_150_22)">
<path fill-rule="evenodd" clip-rule="evenodd" d="M0.113174 85.918L41.0721 111.954C83.03 138.657 164.948 191.396 247.865 171.368C329.782 152.008 412.699 59.2148 494.617 59.2148C577.534 59.2148 659.452 152.008 742.368 145.333C824.286 138.657 907.203 32.5116 989.121 19.8276C1072.04 6.47597 1153.96 85.918 1236.87 125.305C1318.79 164.692 1401.71 164.692 1483.62 138.657C1566.54 111.954 1648.46 59.2148 1731.38 39.1874C1813.29 19.8276 1896.21 32.5116 1937.17 39.1874L1978.13 45.8632V323.576H1937.17C1896.21 323.576 1813.29 323.576 1731.38 323.576C1648.46 323.576 1566.54 323.576 1483.62 323.576C1401.71 323.576 1318.79 323.576 1236.87 323.576C1153.96 323.576 1072.04 323.576 989.121 323.576C907.203 323.576 824.286 323.576 742.368 323.576C659.452 323.576 577.534 323.576 494.617 323.576C412.699 323.576 329.782 323.576 247.865 323.576C164.948 323.576 83.03 323.576 41.0721 323.576H0.113174V85.918Z" fill="#CA3924"/>
<path fill-rule="evenodd" clip-rule="evenodd" d="M0.113174 85.918L41.0721 111.954C83.03 138.657 164.948 191.396 247.865 171.368C329.782 152.008 412.699 59.2148 494.617 59.2148C577.534 59.2148 659.452 152.008 742.368 145.333C824.286 138.657 907.203 32.5116 989.121 19.8276C1072.04 6.47597 1153.96 85.918 1236.87 125.305C1318.79 164.692 1401.71 164.692 1483.62 138.657C1566.54 111.954 1648.46 59.2148 1731.38 39.1874C1813.29 19.8276 1896.21 32.5116 1937.17 39.1874L1978.13 45.8632V323.576H1937.17C1896.21 323.576 1813.29 323.576 1731.38 323.576C1648.46 323.576 1566.54 323.576 1483.62 323.576C1401.71 323.576 1318.79 323.576 1236.87 323.576C1153.96 323.576 1072.04 323.576 989.121 323.576C907.203 323.576 824.286 323.576 742.368 323.576C659.452 323.576 577.534 323.576 494.617 323.576C412.699 323.576 329.782 323.576 247.865 323.576C164.948 323.576 83.03 323.576 41.0721 323.576H0.113174V85.918Z" stroke="black"/>
</g>
<defs>
<filter id="filter0_d_150_22" x="0.113174" y="0.333008" width="1996.02" height="323.243" filterUnits="userSpaceOnUse" color-interpolation-filters="sRGB">
<feFlood flood-opacity="0" result="BackgroundImageFix"/>
<feColorMatrix in="SourceAlpha" type="matrix" values="0 0 0 0 0 0 0 0 0 0 0 0 0 0 0 0 0 0 127 0" result="hardAlpha"/>
<feOffset dx="10" dy="-10"/>
<feGaussianBlur stdDeviation="4"/>
<feComposite in2="hardAlpha" operator="out"/>
<feColorMatrix type="matrix" values="0 0 0 0 0 0 0 0 0 0 0 0 0 0 0 0 0 0 0.25 0"/>
<feBlend mode="normal" in2="BackgroundImageFix" result="effect1_dropShadow_150_22"/>
<feBlend mode="normal" in="SourceGraphic" in2="effect1_dropShadow_150_22" result="shape"/>
</filter>
</defs>
</svg>
