<svg width="1997" height="324" viewBox="0 0 1997 324" fill="none" xmlns="http://www.w3.org/2000/svg">
<g filter="url(#filter0_d_150_30)">
<path fill-rule="evenodd" clip-rule="evenodd" d="M0.113174 85.6748L41.0721 111.71C83.03 138.414 164.948 191.152 247.865 171.125C329.782 151.765 412.699 58.9716 494.617 58.9716C577.534 58.9716 659.452 151.765 742.368 145.089C824.286 138.414 907.203 32.2684 989.121 19.5844C1072.04 6.23281 1153.96 85.6748 1236.87 125.062C1318.79 164.449 1401.71 164.449 1483.62 138.414C1566.54 111.71 1648.46 58.9716 1731.38 38.9442C1813.29 19.5844 1896.21 32.2684 1937.17 38.9442L1978.13 45.62V323.333H1937.17C1896.21 323.333 1813.29 323.333 1731.38 323.333C1648.46 323.333 1566.54 323.333 1483.62 323.333C1401.71 323.333 1318.79 323.333 1236.87 323.333C1153.96 323.333 1072.04 323.333 989.121 323.333C907.203 323.333 824.286 323.333 742.368 323.333C659.452 323.333 577.534 323.333 494.617 323.333C412.699 323.333 329.782 323.333 247.865 323.333C164.948 323.333 83.03 323.333 41.0721 323.333H0.113174V85.6748Z" fill="#FFCF9D"/>
<path fill-rule="evenodd" clip-rule="evenodd" d="M0.113174 85.6748L41.0721 111.71C83.03 138.414 164.948 191.152 247.865 171.125C329.782 151.765 412.699 58.9716 494.617 58.9716C577.534 58.9716 659.452 151.765 742.368 145.089C824.286 138.414 907.203 32.2684 989.121 19.5844C1072.04 6.23281 1153.96 85.6748 1236.87 125.062C1318.79 164.449 1401.71 164.449 1483.62 138.414C1566.54 111.71 1648.46 58.9716 1731.38 38.9442C1813.29 19.5844 1896.21 32.2684 1937.17 38.9442L1978.13 45.62V323.333H1937.17C1896.21 323.333 1813.29 323.333 1731.38 323.333C1648.46 323.333 1566.54 323.333 1483.62 323.333C1401.71 323.333 1318.79 323.333 1236.87 323.333C1153.96 323.333 1072.04 323.333 989.121 323.333C907.203 323.333 824.286 323.333 742.368 323.333C659.452 323.333 577.534 323.333 494.617 323.333C412.699 323.333 329.782 323.333 247.865 323.333C164.948 323.333 83.03 323.333 41.0721 323.333H0.113174V85.6748Z" stroke="black"/>
</g>
<defs>
<filter id="filter0_d_150_30" x="0.113174" y="0.0898438" width="1996.02" height="323.243" filterUnits="userSpaceOnUse" color-interpolation-filters="sRGB">
<feFlood flood-opacity="0" result="BackgroundImageFix"/>
<feColorMatrix in="SourceAlpha" type="matrix" values="0 0 0 0 0 0 0 0 0 0 0 0 0 0 0 0 0 0 127 0" result="hardAlpha"/>
<feOffset dx="10" dy="-10"/>
<feGaussianBlur stdDeviation="4"/>
<feComposite in2="hardAlpha" operator="out"/>
<feColorMatrix type="matrix" values="0 0 0 0 0 0 0 0 0 0 0 0 0 0 0 0 0 0 0.25 0"/>
<feBlend mode="normal" in2="BackgroundImageFix" result="effect1_dropShadow_150_30"/>
<feBlend mode="normal" in="SourceGraphic" in2="effect1_dropShadow_150_30" result="shape"/>
</filter>
</defs>
</svg>
