<svg width="1997" height="362" viewBox="0 0 1997 362" fill="none" xmlns="http://www.w3.org/2000/svg">
<g filter="url(#filter0_d_150_24)">
<path fill-rule="evenodd" clip-rule="evenodd" d="M0.113174 94.5779L41.0721 123.847C83.03 153.867 164.948 213.156 247.865 190.641C329.782 168.877 412.699 64.5583 494.617 64.5583C577.534 64.5583 659.452 168.877 742.368 161.372C824.286 153.867 907.203 34.5386 989.121 20.2793C1072.04 5.26947 1153.96 94.5779 1236.87 138.857C1318.79 183.136 1401.71 183.136 1483.62 153.867C1566.54 123.847 1648.46 64.5583 1731.38 42.0435C1813.29 20.2793 1896.21 34.5386 1937.17 42.0435L1978.13 49.5484V361.753H1937.17C1896.21 361.753 1813.29 361.753 1731.38 361.753C1648.46 361.753 1566.54 361.753 1483.62 361.753C1401.71 361.753 1318.79 361.753 1236.87 361.753C1153.96 361.753 1072.04 361.753 989.121 361.753C907.203 361.753 824.286 361.753 742.368 361.753C659.452 361.753 577.534 361.753 494.617 361.753C412.699 361.753 329.782 361.753 247.865 361.753C164.948 361.753 83.03 361.753 41.0721 361.753H0.113174V94.5779Z" fill="#F8A840"/>
<path fill-rule="evenodd" clip-rule="evenodd" d="M0.113174 94.5779L41.0721 123.847C83.03 153.867 164.948 213.156 247.865 190.641C329.782 168.877 412.699 64.5583 494.617 64.5583C577.534 64.5583 659.452 168.877 742.368 161.372C824.286 153.867 907.203 34.5386 989.121 20.2793C1072.04 5.26947 1153.96 94.5779 1236.87 138.857C1318.79 183.136 1401.71 183.136 1483.62 153.867C1566.54 123.847 1648.46 64.5583 1731.38 42.0435C1813.29 20.2793 1896.21 34.5386 1937.17 42.0435L1978.13 49.5484V361.753H1937.17C1896.21 361.753 1813.29 361.753 1731.38 361.753C1648.46 361.753 1566.54 361.753 1483.62 361.753C1401.71 361.753 1318.79 361.753 1236.87 361.753C1153.96 361.753 1072.04 361.753 989.121 361.753C907.203 361.753 824.286 361.753 742.368 361.753C659.452 361.753 577.534 361.753 494.617 361.753C412.699 361.753 329.782 361.753 247.865 361.753C164.948 361.753 83.03 361.753 41.0721 361.753H0.113174V94.5779Z" stroke="black"/>
</g>
<defs>
<filter id="filter0_d_150_24" x="0.113174" y="0.599121" width="1996.02" height="361.154" filterUnits="userSpaceOnUse" color-interpolation-filters="sRGB">
<feFlood flood-opacity="0" result="BackgroundImageFix"/>
<feColorMatrix in="SourceAlpha" type="matrix" values="0 0 0 0 0 0 0 0 0 0 0 0 0 0 0 0 0 0 127 0" result="hardAlpha"/>
<feOffset dx="10" dy="-10"/>
<feGaussianBlur stdDeviation="4"/>
<feComposite in2="hardAlpha" operator="out"/>
<feColorMatrix type="matrix" values="0 0 0 0 0 0 0 0 0 0 0 0 0 0 0 0 0 0 0.25 0"/>
<feBlend mode="normal" in2="BackgroundImageFix" result="effect1_dropShadow_150_24"/>
<feBlend mode="normal" in="SourceGraphic" in2="effect1_dropShadow_150_24" result="shape"/>
</filter>
</defs>
</svg>
