<svg width="1997" height="318" viewBox="0 0 1997 318" fill="none" xmlns="http://www.w3.org/2000/svg">
<g filter="url(#filter0_d_150_23)">
<path fill-rule="evenodd" clip-rule="evenodd" d="M0.0981293 84.6988L41.057 110.177C83.0149 136.308 164.933 187.918 247.85 168.319C329.767 149.374 412.684 58.5674 494.602 58.5674C577.519 58.5674 659.437 149.374 742.353 142.841C824.271 136.308 907.188 32.436 989.106 20.0236C1072.02 6.9579 1153.94 84.6988 1236.86 123.243C1318.77 161.786 1401.69 161.786 1483.61 136.308C1566.53 110.177 1648.44 58.5674 1731.36 38.9688C1813.28 20.0236 1896.2 32.436 1937.15 38.9688L1978.11 45.5017V317.268H1937.15C1896.2 317.268 1813.28 317.268 1731.36 317.268C1648.44 317.268 1566.53 317.268 1483.61 317.268C1401.69 317.268 1318.77 317.268 1236.86 317.268C1153.94 317.268 1072.02 317.268 989.106 317.268C907.188 317.268 824.271 317.268 742.353 317.268C659.437 317.268 577.519 317.268 494.602 317.268C412.684 317.268 329.767 317.268 247.85 317.268C164.933 317.268 83.0149 317.268 41.057 317.268H0.0981293V84.6988Z" fill="#931E0D"/>
<path fill-rule="evenodd" clip-rule="evenodd" d="M0.0981293 84.6988L41.057 110.177C83.0149 136.308 164.933 187.918 247.85 168.319C329.767 149.374 412.684 58.5674 494.602 58.5674C577.519 58.5674 659.437 149.374 742.353 142.841C824.271 136.308 907.188 32.436 989.106 20.0236C1072.02 6.9579 1153.94 84.6988 1236.86 123.243C1318.77 161.786 1401.69 161.786 1483.61 136.308C1566.53 110.177 1648.44 58.5674 1731.36 38.9688C1813.28 20.0236 1896.2 32.436 1937.15 38.9688L1978.11 45.5017V317.268H1937.15C1896.2 317.268 1813.28 317.268 1731.36 317.268C1648.44 317.268 1566.53 317.268 1483.61 317.268C1401.69 317.268 1318.77 317.268 1236.86 317.268C1153.94 317.268 1072.02 317.268 989.106 317.268C907.188 317.268 824.271 317.268 742.353 317.268C659.437 317.268 577.519 317.268 494.602 317.268C412.684 317.268 329.767 317.268 247.85 317.268C164.933 317.268 83.0149 317.268 41.057 317.268H0.0981293V84.6988Z" stroke="black"/>
</g>
<defs>
<filter id="filter0_d_150_23" x="0.0981293" y="0.561035" width="1996.01" height="316.707" filterUnits="userSpaceOnUse" color-interpolation-filters="sRGB">
<feFlood flood-opacity="0" result="BackgroundImageFix"/>
<feColorMatrix in="SourceAlpha" type="matrix" values="0 0 0 0 0 0 0 0 0 0 0 0 0 0 0 0 0 0 127 0" result="hardAlpha"/>
<feOffset dx="10" dy="-10"/>
<feGaussianBlur stdDeviation="4"/>
<feComposite in2="hardAlpha" operator="out"/>
<feColorMatrix type="matrix" values="0 0 0 0 0 0 0 0 0 0 0 0 0 0 0 0 0 0 0.25 0"/>
<feBlend mode="normal" in2="BackgroundImageFix" result="effect1_dropShadow_150_23"/>
<feBlend mode="normal" in="SourceGraphic" in2="effect1_dropShadow_150_23" result="shape"/>
</filter>
</defs>
</svg>
