<svg width="82" height="54" viewBox="0 0 82 54" fill="none" xmlns="http://www.w3.org/2000/svg">
<path d="M74.9326 34.2324V36.2843H75.9714C76.8958 36.2843 77.3625 35.9423 77.3625 35.2583C77.3625 34.8753 77.239 34.6063 76.9919 34.4558C76.7447 34.3053 76.3192 34.2324 75.7243 34.2324H74.9372H74.9326ZM72.7041 32.6136H76.6944C77.6005 32.6136 78.3189 32.8736 78.8543 33.3934C79.3897 33.9132 79.6551 34.5242 79.6551 35.2355C79.6551 35.9469 79.3897 36.5989 78.8634 37.1233C78.3372 37.6477 77.6188 37.9076 76.7081 37.9076H74.9326V41.4597H72.7041V32.6182V32.6136Z" fill="black"/>
<path d="M75.7151 53.0461V48.9195L72.187 44.2047H74.8914L76.8317 46.9816L78.781 44.2047H81.4717L77.9436 48.9241V53.0461H75.7151Z" fill="black"/>
<path d="M55.0543 28.8656H55.0315C55.0315 28.6239 55.0315 28.3821 55.0178 28.1359C55.0315 28.3685 55.0406 28.6147 55.0498 28.8656H55.0543Z" fill="#F4803C"/>
<path d="M40.2511 6.73216C38.9469 6.41297 37.5787 6.24426 36.1784 6.24426C27.5343 6.24426 20.4049 12.628 19.3524 20.8858H0.737213C6.02251 11.0412 16.5016 4.33826 28.5685 4.33826C29.7262 4.33826 30.8748 4.40209 32.0005 4.52065L32.1286 4.53433C34.3114 4.7988 37.2492 5.40069 40.2556 6.73216H40.2511Z" fill="#87272A"/>
<path d="M0.805847 23.5761V24.7252H3.10758V29.8641H4.69546V24.7252H6.99719V23.5761H0.805847Z" fill="black"/>
<path d="M14.1083 23.5761V29.8641H12.525V27.3197H9.35384V29.8641H7.76596V23.5761H9.35384V26.0977H12.525V23.5761H14.1083Z" fill="black"/>
<path d="M20.2813 29.8641H15.2889V23.5761H19.2197C19.2197 23.7175 19.2151 23.8634 19.2151 24.0047C19.2151 24.2464 19.2197 24.4881 19.2289 24.7297H16.8768V26.0475H19.3387C19.3844 26.4351 19.4485 26.8181 19.5217 27.1966H16.8768V28.7105H19.8924C20.0068 29.1026 20.1395 29.4856 20.2813 29.8641Z" fill="black"/>
<path d="M7.65157 32.6136V38.017L2.87421 32.6136H0.833313V41.4551H3.06183V35.7918L7.99934 41.4551H9.88008V32.6136H7.65157Z" fill="black"/>
<path d="M16.6343 39.7361C17.4808 39.7361 18.1626 39.4899 18.6752 38.9929C19.1922 38.4959 19.4485 37.8484 19.4485 37.0413C19.4485 36.2342 19.1922 35.5776 18.6752 35.0851C18.1581 34.5926 17.4762 34.3464 16.6343 34.3464C15.7923 34.3464 15.1013 34.5926 14.5796 35.0851C14.0625 35.5776 13.8017 36.2296 13.8017 37.0413C13.8017 37.8529 14.0625 38.4959 14.5796 38.9929C15.0967 39.4899 15.7831 39.7361 16.6343 39.7361ZM16.6343 32.4997C18.1581 32.4997 19.3936 32.9557 20.3362 33.8631C21.2789 34.7705 21.7502 35.8284 21.7502 37.0367C21.7502 38.2451 21.2698 39.3212 20.3134 40.2195C19.357 41.1177 18.1306 41.5692 16.6297 41.5692C15.1287 41.5692 13.8795 41.1223 12.9277 40.2286C11.9759 39.3349 11.5 38.2724 11.5 37.0413C11.5 35.8101 11.9713 34.7705 12.9185 33.8631C13.8658 32.9557 15.1013 32.5043 16.6297 32.5043" fill="black"/>
<path d="M25.5941 34.2324V36.2433H26.7747C27.15 36.2433 27.4474 36.1566 27.667 35.9788C27.8867 35.8055 27.9965 35.5547 27.9965 35.231C27.9965 34.5652 27.571 34.2324 26.7198 34.2324H25.5941ZM23.3656 32.6136H27.3605C28.2253 32.6136 28.93 32.8599 29.4746 33.3569C30.0145 33.8539 30.2891 34.4513 30.2891 35.158C30.2891 36.1338 29.7766 36.8543 28.7516 37.3194C29.2 37.52 29.6256 38.0672 30.0328 38.9518C30.4355 39.8364 30.8291 40.6708 31.2043 41.4551H28.7607C28.6143 41.1633 28.3626 40.607 27.9965 39.7908C27.635 38.9746 27.3238 38.4457 27.063 38.2131C26.8068 37.9806 26.5276 37.8666 26.2348 37.8666H25.5941V41.4551H23.3656V32.6136Z" fill="black"/>
<path d="M39.8712 32.6136V34.2324H36.6314V41.4551H34.4029V34.2324H31.1631V32.6136H39.8712Z" fill="black"/>
<path d="M50.3274 32.6136V41.4551H48.0989V37.8802H43.6418V41.4551H41.4133V32.6136H43.6418V36.1657H48.0989V32.6136H50.3274Z" fill="black"/>
<path d="M60.2711 38.7603V40.6891C59.1546 41.2773 57.9785 41.5692 56.7567 41.5692C55.1688 41.5692 53.9059 41.136 52.9632 40.2696C52.0206 39.4033 51.5492 38.3363 51.5492 37.0641C51.5492 35.7919 52.0434 34.7158 53.0364 33.8312C54.0294 32.9466 55.3244 32.4997 56.926 32.4997C58.2027 32.4997 59.2827 32.7596 60.1659 33.2794V35.2493C59.0813 34.6474 58.0563 34.3464 57.0862 34.3464C56.1161 34.3464 55.3565 34.5972 54.7524 35.1033C54.1484 35.6095 53.8464 36.2479 53.8464 37.0322C53.8464 37.8164 54.1438 38.4639 54.7387 38.9746C55.3336 39.4853 56.0978 39.7407 57.0267 39.7407C57.4889 39.7407 57.9328 39.6814 58.3583 39.5583C58.7839 39.4397 59.42 39.1753 60.2665 38.7649" fill="black"/>
<path d="M67.6293 38.1629L66.1787 34.7248L64.8654 38.1629H67.6293ZM67.4371 32.6136L71.4091 41.4551H69.0113L68.2745 39.7087H64.266L63.5978 41.4551H61.2366L64.8517 32.6136H67.4325H67.4371Z" fill="black"/>
<path d="M7.45477 44.2047H9.68329V49.225C9.68329 50.5154 9.2989 51.4958 8.52555 52.1615C7.75221 52.8273 6.64939 53.1601 5.2171 53.1601C3.78481 53.1601 2.70029 52.8227 1.91779 52.1478C1.1353 51.473 0.74176 50.5018 0.74176 49.2387V44.2092H2.97485V49.2888C2.97485 49.9044 3.18077 50.3969 3.58804 50.7708C3.9953 51.1401 4.5307 51.3271 5.19422 51.3271C5.85774 51.3271 6.42974 51.1356 6.84158 50.7571C7.25342 50.3786 7.45934 49.836 7.45934 49.1384V44.2092L7.45477 44.2047Z" fill="black"/>
<path d="M20.3363 44.2047V53.0461H18.4509L13.5134 47.3828V53.0461H11.2849V44.2047H13.3304L18.1077 49.608V44.2047H20.3363Z" fill="black"/>
<path d="M24.3083 44.2047H22.0797V53.0461H24.3083V44.2047Z" fill="black"/>
<path d="M34.4624 44.2047L30.3303 53.1601H29.3648L25.0267 44.2047H27.4566L29.8224 49.2569L32.0646 44.2047H34.4624Z" fill="black"/>
<path d="M41.7428 51.4274V53.0461H35.1442V44.2047H41.6513V45.8234H37.3727V47.6792H41.4545V49.298H37.3727V51.4274H41.7428Z" fill="black"/>
<path d="M45.5043 45.8234V47.8343H46.6849C47.0602 47.8343 47.3576 47.7476 47.5772 47.5698C47.7969 47.3965 47.9067 47.1457 47.9067 46.822C47.9067 46.1563 47.4811 45.8234 46.63 45.8234H45.5043ZM43.2758 44.2047H47.2706C48.1355 44.2047 48.8402 44.4509 49.3848 44.9479C49.9247 45.4449 50.1993 46.0423 50.1993 46.749C50.1993 47.7248 49.6868 48.4453 48.6618 48.9104C49.1102 49.111 49.5358 49.6582 49.943 50.5428C50.3457 51.4274 50.7393 52.2618 51.1145 53.0461H48.6709C48.5245 52.7543 48.2728 52.198 47.9067 51.3818C47.5452 50.5656 47.234 50.0367 46.9732 49.8041C46.7169 49.5716 46.4378 49.4576 46.1449 49.4576H45.5043V53.0461H43.2758V44.2047Z" fill="black"/>
<path d="M58.0472 44.7746V46.5028C56.862 45.9739 55.9147 45.7094 55.21 45.7094C54.8073 45.7094 54.4916 45.7778 54.2536 45.91C54.0157 46.0423 53.8967 46.2201 53.8967 46.439C53.8967 46.6077 53.9837 46.7673 54.153 46.9178C54.3223 47.0682 54.7387 47.2643 55.4022 47.506C56.0657 47.7476 56.592 47.9711 56.9901 48.1763C57.3882 48.3815 57.7314 48.6733 58.0197 49.0472C58.308 49.4211 58.4498 49.8999 58.4498 50.4698C58.4498 51.2861 58.1341 51.9381 57.5072 52.426C56.8757 52.9094 56.0474 53.1556 55.0178 53.1556C53.9059 53.1556 52.8305 52.8729 51.7917 52.3029V50.3969C52.3912 50.7936 52.9174 51.0809 53.3796 51.2633C53.8418 51.4457 54.3314 51.5368 54.8439 51.5368C55.718 51.5368 56.1573 51.2633 56.1573 50.7206C56.1573 50.5337 56.0703 50.3604 55.8964 50.1963C55.7225 50.0321 55.3015 49.8315 54.6334 49.5944C53.9653 49.3573 53.4345 49.1384 53.0456 48.9378C52.6566 48.7371 52.318 48.4453 52.0343 48.0714C51.7506 47.6975 51.6087 47.2141 51.6087 46.6259C51.6087 45.8644 51.9199 45.2534 52.5376 44.7883C53.1554 44.3232 53.9837 44.0907 55.0224 44.0907C55.9788 44.0907 56.9901 44.3187 58.0517 44.7746" fill="black"/>
<path d="M61.8636 44.2047H59.635V53.0461H61.8636V44.2047Z" fill="black"/>
<path d="M71.8301 44.2047V45.8234H68.5903V53.0461H66.3618V45.8234H63.1219V44.2047H71.8301Z" fill="black"/>
<path d="M55.0176 28.0996C54.9857 27.5296 54.9538 27.0553 54.9446 26.8455C54.9811 27.2651 55.0085 27.6846 55.0176 28.0996Z" fill="#F4803C"/>
<path d="M81.0279 29.8641H55.0819C55.0819 29.5449 55.0682 29.2029 55.0545 28.8655C55.0453 28.6147 55.0316 28.3684 55.0224 28.1359V28.0994C55.0087 27.6845 54.9858 27.265 54.9447 26.8455V26.7679L54.9355 26.7223C53.9608 15.8517 45.5776 3.60408 28.5457 3.60408C24.2259 3.60408 20.1075 4.44309 16.3414 5.9615C22.8577 2.38205 30.3577 0.343811 38.3383 0.343811C57.5667 0.343811 73.9992 12.1674 80.5978 28.8609L81.0279 29.8595V29.8641Z" fill="#F4803C"/>
</svg>
