<svg width="1747" height="774" viewBox="0 0 1747 774" fill="none" xmlns="http://www.w3.org/2000/svg">
<path d="M2.17761 749.287C16.8129 748.786 35.3172 759.397 48.3488 762.839C80.368 771.295 112.802 771.421 147.062 771.897C225.273 772.986 304.653 760.558 380.946 744.614C426.755 735.04 465.739 716.192 503.643 694.914C549.783 669.013 585.794 644.006 623.987 612.206C663.072 579.663 696.127 545.26 727.298 508.626C766.001 463.14 787.614 408.107 814.335 358.937C835.253 320.446 856.666 277.941 886.023 241.773C910.847 211.189 935.939 181.588 956.491 149.527C971.097 126.742 995.842 111.643 1023.01 95.9712C1051.91 79.2989 1081.75 65.6625 1113.61 52.3706C1145.95 38.8787 1187.13 34.3886 1222.3 27.8436C1278.36 17.4115 1301.55 2.77092 1357.45 3.85502C1390.8 4.50172 1468.5 1.22217 1501.66 2.91538C1540.5 4.89866 1555.92 14.1226 1595.17 12.5201C1618.77 23.522 1660.53 24.8542 1681.64 28.3918C1689.96 29.7856 1741.04 38.604 1745.03 43.6625" stroke="white" stroke-opacity="0.56" stroke-width="3" stroke-linecap="round" stroke-dasharray="25.65 0"/>
</svg>
