<svg width="1980" height="180" viewBox="0 0 1980 180" fill="none" xmlns="http://www.w3.org/2000/svg">
<path d="M1864.03 27.296C1864.03 27.296 1822.77 28.9686 1799.76 26.7608C1776.75 24.5531 1734.57 30.6411 1734.57 30.6411C1726.14 34.0578 1713.14 36.8343 1697.3 38.6025C1674.9 40.5427 1703.28 47.8684 1664.93 51.2135C1643.94 52.788 1625.89 55.8195 1613.54 59.8439C1613.54 59.8439 1561.7 65.6309 1525.19 62.7876C1488.68 59.9442 1498.04 56.0974 1476.72 55.4618C1457.41 54.459 1438.79 52.9069 1421.34 50.8456L1391.89 45.9283C1384.7 45.7824 1377.45 45.9726 1370.63 46.486C1363.81 46.9993 1357.56 47.8242 1352.31 48.9054C1332.83 52.6185 1295.71 45.1589 1295.71 45.1589L1265.03 41.8138C1260.03 43.1179 1253.68 44.1459 1246.51 44.8144C1239.34 45.4828 1231.55 45.7728 1223.77 45.6607C1197.85 45.1254 1162.41 50.0428 1162.41 50.0428L1118.24 53.7558C1102.78 52.2402 1088.9 50.0551 1077.43 47.3332C1064.68 44.5303 1048.83 42.4911 1031.42 41.4124C1011.15 40.7315 992.943 38.3256 980.796 34.7222C967.476 30.6954 952.03 27.024 934.778 23.7837C912.176 23.7758 889.624 24.2463 867.439 25.1886C832.619 26.7274 819.734 31.1095 797.338 29.069C774.943 27.0284 717.727 28.2996 717.727 28.2996L671.709 33.9528C671.709 33.9528 630.139 39.5057 608.818 35.3912C587.496 31.2767 530.434 32.5813 530.434 32.5813C507.842 35.0265 489.451 38.9901 477.973 43.8878C465.857 49.2379 451.423 54.3232 434.87 59.0745L398.822 63.4232L279.789 65.3633L233.771 72.6891C233.771 72.6891 187.753 80.6839 173.641 80.6839C159.151 80.8794 144.745 81.3042 130.538 81.955C130.538 81.955 109.369 88.6452 81.6052 84.8987C59.2098 82.0219 16.1064 85.7015 0.306882 87.2403V180L1980 180V11.2061L1927.69 15.4544L1864.03 27.296Z" fill="#030919"/>
<path d="M80.9916 84.8987C108.756 88.5114 129.924 81.955 129.924 81.955C144.132 81.3042 158.538 80.8793 173.028 80.6838C188.367 80.6838 233.158 72.689 233.158 72.689L279.176 65.3633L398.209 63.4231L434.256 59.0745C450.81 54.3232 465.243 49.2378 477.36 43.8877C488.837 38.9901 507.228 35.0264 529.82 32.5813C529.82 32.5813 587.036 31.4105 608.204 35.3911C629.373 39.3718 672.016 33.9862 672.016 33.9862L718.034 28.333C718.034 28.333 775.249 27.0284 797.645 29.1023C820.04 31.1763 832.925 26.7608 867.746 25.222C889.931 24.2797 912.483 23.8092 935.085 23.8171C952.337 27.0574 967.782 30.7288 981.103 34.7556C993.25 38.359 1011.45 40.7649 1031.72 41.4458C1049.14 42.5245 1064.99 44.5637 1077.74 47.3666C1089.21 50.0884 1103.09 52.2736 1118.54 53.7892L1162.72 50.0761C1162.72 50.0761 1198.15 45.1588 1224.08 45.694C1231.86 45.8062 1239.65 45.5162 1246.82 44.8478C1253.99 44.1793 1260.34 43.1513 1265.34 41.8472L1296.02 45.1923C1296.02 45.1923 1333.14 52.6519 1352.62 48.9388C1357.87 47.8575 1364.11 47.0327 1370.94 46.5193C1377.76 46.006 1385.01 45.8158 1392.2 45.9617L1421.65 50.8455C1439.1 52.9069 1457.72 54.4589 1477.02 55.4618C1498.35 56.2311 1489.14 59.9776 1525.5 62.9213C1561.85 65.865 1613.85 59.9776 1613.85 59.9776C1626.19 55.9532 1644.24 52.9217 1665.24 51.3473C1703.59 48.0022 1675.21 40.6764 1697.6 38.7362C1713.42 36.9218 1726.32 34.0975 1734.57 30.6411C1734.57 30.6411 1776.45 24.5864 1799.46 26.7608C1822.47 28.9351 1863.73 27.296 1863.73 27.296L1927.69 15.4543L1980 11.206V-5.86534e-05L1922.02 4.74999L1858.67 16.4913C1858.67 16.4913 1817.56 18.1639 1794.7 15.9895C1771.85 13.8152 1730.28 19.803 1730.28 19.803C1721.87 23.1936 1708.99 25.9556 1693.31 27.7308C1671.07 29.671 1699.14 36.9633 1661.1 40.275C1640.27 41.8335 1622.38 44.8426 1610.17 48.8385C1610.17 48.8385 1558.48 54.592 1522.12 51.7821C1485.77 48.9722 1495.28 45.0919 1474.11 44.4898C1454.89 43.4911 1436.38 41.9387 1419.04 39.8736L1389.74 35.0232C1382.71 34.8955 1375.64 35.0916 1368.98 35.5988C1362.32 36.1059 1356.22 36.9127 1351.09 37.9669C1331.61 41.6799 1294.79 34.2538 1294.79 34.2538L1264.11 30.9087C1259.16 32.2095 1252.87 33.2363 1245.75 33.9049C1238.64 34.5735 1230.89 34.8651 1223.16 34.7556C1197.23 34.2204 1161.8 39.1042 1161.8 39.1042L1117.16 42.8507C1101.69 41.256 1087.9 38.9779 1076.67 36.1605C1063.9 33.3771 1048.05 31.3606 1030.65 30.3066C1010.56 29.6557 992.444 27.314 980.183 23.7836C967.156 19.7868 952.02 16.1379 935.085 12.912C912.636 12.9047 890.236 13.3752 868.206 14.317C833.692 15.8557 820.807 20.2044 798.412 18.1639C776.016 16.1233 719.261 17.3945 719.261 17.3945L674.163 23.0143C674.163 23.0143 631.98 28.3664 610.812 24.4192C589.644 20.472 532.888 21.6093 532.888 21.6093C510.614 24.0571 492.464 27.9799 481.041 32.8154C469.008 38.1295 454.677 43.1812 438.245 47.9018L402.504 52.2505L284.084 54.1572L238.066 61.4495C238.066 61.4495 192.969 69.3774 178.243 69.3774C163.855 69.5739 149.551 69.9987 135.446 70.6485C135.446 70.6485 114.431 77.1715 86.8207 73.5922C59.2099 70.013 3.03159e-05 76.5359 3.03159e-05 76.5359V87.2402C15.4927 85.7015 58.5962 82.0219 80.9916 84.8987Z" fill="white"/>
</svg>
