<svg width="1980" height="180" viewBox="0 0 1980 180" fill="none" xmlns="http://www.w3.org/2000/svg">
<path d="M115.965 152.704C115.965 152.704 157.228 151.031 180.237 153.239C203.246 155.447 245.429 149.359 245.429 149.359C253.865 145.942 266.864 143.166 282.704 141.398C305.099 139.457 276.721 132.132 315.07 128.786C336.064 127.212 354.114 124.181 366.456 120.156C366.456 120.156 418.303 114.369 454.811 117.212C491.319 120.056 481.962 123.903 503.283 124.538C522.59 125.541 541.207 127.093 558.658 129.154L588.11 134.072C595.298 134.218 602.546 134.027 609.37 133.514C616.194 133.001 622.438 132.176 627.685 131.095C647.166 127.382 684.287 134.841 684.287 134.841L714.966 138.186C719.97 136.882 726.316 135.854 733.486 135.186C740.656 134.517 748.448 134.227 756.229 134.339C782.152 134.875 817.586 129.957 817.586 129.957L861.763 126.244C877.22 127.76 891.102 129.945 902.566 132.667C915.318 135.47 931.167 137.509 948.584 138.588C968.853 139.269 987.057 141.674 999.204 145.278C1012.52 149.305 1027.97 152.976 1045.22 156.216C1067.82 156.224 1090.38 155.754 1112.56 154.811C1147.38 153.273 1160.27 148.891 1182.66 150.931C1205.06 152.972 1262.27 151.7 1262.27 151.7L1308.29 146.047C1308.29 146.047 1349.86 140.494 1371.18 144.609C1392.5 148.723 1449.57 147.419 1449.57 147.419C1472.16 144.974 1490.55 141.01 1502.03 136.112C1514.14 130.762 1528.58 125.677 1545.13 120.925L1581.18 116.577L1700.21 114.637L1746.23 107.311C1746.23 107.311 1792.25 99.3161 1806.36 99.3161C1820.85 99.1206 1835.25 98.6958 1849.46 98.045C1849.46 98.045 1870.63 91.3548 1898.39 95.1013C1920.79 97.9781 1963.89 94.2985 1979.69 92.7597V0H0V168.794L52.3071 164.546L115.965 152.704Z" fill="#030919"/>
<path d="M1899.01 95.1013C1871.24 91.4886 1850.08 98.045 1850.08 98.045C1835.87 98.6958 1821.46 99.1207 1806.97 99.3162C1791.63 99.3162 1746.84 107.311 1746.84 107.311L1700.82 114.637L1581.79 116.577L1545.74 120.926C1529.19 125.677 1514.76 130.762 1502.64 136.112C1491.16 141.01 1472.77 144.974 1450.18 147.419C1450.18 147.419 1392.96 148.59 1371.8 144.609C1350.63 140.628 1307.98 146.014 1307.98 146.014L1261.97 151.667C1261.97 151.667 1204.75 152.972 1182.36 150.898C1159.96 148.824 1147.07 153.239 1112.25 154.778C1090.07 155.72 1067.52 156.191 1044.91 156.183C1027.66 152.943 1012.22 149.271 998.897 145.244C986.75 141.641 968.546 139.235 948.277 138.554C930.86 137.475 915.011 135.436 902.259 132.633C890.795 129.912 876.913 127.726 861.456 126.211L817.279 129.924C817.279 129.924 781.845 134.841 755.922 134.306C748.141 134.194 740.349 134.484 733.179 135.152C726.009 135.821 719.664 136.849 714.659 138.153L683.98 134.808C683.98 134.808 646.859 127.348 627.378 131.061C622.131 132.142 615.888 132.967 609.063 133.481C602.239 133.994 594.991 134.184 587.803 134.038L558.351 129.154C540.901 127.093 522.283 125.541 502.976 124.538C481.655 123.769 490.858 120.022 454.504 117.079C418.15 114.135 366.15 120.022 366.15 120.022C353.808 124.047 335.758 127.078 314.763 128.653C276.415 131.998 304.792 139.324 282.397 141.264C266.582 143.078 253.684 145.903 245.429 149.359C245.429 149.359 203.553 155.414 180.544 153.239C157.535 151.065 116.272 152.704 116.272 152.704L52.3071 164.546L0 168.794V180L57.9826 175.25L121.334 163.509C121.334 163.509 162.443 161.836 185.299 164.01C208.155 166.185 249.724 160.197 249.724 160.197C258.126 156.806 271.005 154.044 286.692 152.269C308.934 150.329 280.863 143.037 318.905 139.725C339.729 138.167 357.625 135.157 369.831 131.162C369.831 131.162 421.525 125.408 457.879 128.218C494.233 131.028 484.723 134.908 505.891 135.51C525.105 136.509 543.624 138.061 560.959 140.126L590.257 144.977C597.287 145.104 604.361 144.908 611.02 144.401C617.679 143.894 623.775 143.087 628.912 142.033C648.393 138.32 685.208 145.746 685.208 145.746L715.886 149.091C720.835 147.79 727.127 146.764 734.245 146.095C741.364 145.426 749.108 145.135 756.842 145.244C782.766 145.78 818.2 140.896 818.2 140.896L862.837 137.149C878.314 138.744 892.103 141.022 903.333 143.839C916.103 146.623 931.955 148.639 949.351 149.693C969.438 150.344 987.556 152.686 999.817 156.216C1012.84 160.213 1027.98 163.862 1044.91 167.088C1067.36 167.095 1089.76 166.625 1111.79 165.683C1146.31 164.144 1159.19 159.796 1181.59 161.836C1203.98 163.877 1260.74 162.606 1260.74 162.606L1305.84 156.986C1305.84 156.986 1348.02 151.634 1369.19 155.581C1390.36 159.528 1447.11 158.391 1447.11 158.391C1469.39 155.943 1487.54 152.02 1498.96 147.185C1510.99 141.87 1525.32 136.819 1541.76 132.098L1577.5 127.75L1695.92 125.843L1741.93 118.551C1741.93 118.551 1787.03 110.623 1801.76 110.623C1816.15 110.426 1830.45 110.001 1844.55 109.351C1844.55 109.351 1865.57 102.829 1893.18 106.408C1920.79 109.987 1980 103.464 1980 103.464V92.7598C1964.51 94.2985 1921.4 97.9781 1899.01 95.1013Z" fill="white"/>
</svg>
