<svg width="256" height="196" viewBox="0 0 256 196" fill="none" xmlns="http://www.w3.org/2000/svg">
<path d="M223.567 101.901V107.741H226.523C229.154 107.741 230.482 106.768 230.482 104.821C230.482 103.731 230.13 102.965 229.427 102.537C228.724 102.109 227.513 101.901 225.82 101.901H223.58H223.567ZM217.224 97.2943H228.581C231.159 97.2943 233.204 98.034 234.728 99.5134C236.251 100.993 237.007 102.732 237.007 104.756C237.007 106.781 236.251 108.637 234.754 110.129C233.256 111.621 231.211 112.361 228.62 112.361H223.567V122.47H217.224V97.3072V97.2943Z" fill="white"/>
<path d="M225.794 155.446V143.701L215.752 130.283H223.449L228.971 138.186L234.519 130.283H242.177L232.136 143.714V155.446H225.794Z" fill="white"/>
<path d="M166.992 86.6271H166.927C166.927 85.9392 166.927 85.2513 166.888 84.5504C166.927 85.2123 166.953 85.9132 166.979 86.6271H166.992Z" fill="#F4803C"/>
<path d="M124.861 23.6344C121.15 22.726 117.256 22.2458 113.27 22.2458C88.669 22.2458 68.3784 40.4142 65.3829 63.9163H12.4033C27.4454 35.898 57.2693 16.8212 91.6123 16.8212C94.9073 16.8212 98.1762 17.0029 101.38 17.3403L101.745 17.3793C107.957 18.1319 116.318 19.845 124.874 23.6344H124.861Z" fill="#87272A"/>
<path d="M12.5987 71.5729V74.8432H19.1495V89.4688H23.6687V74.8432H30.2195V71.5729H12.5987Z" fill="white"/>
<path d="M50.458 71.5729V89.4688H45.9518V82.2273H36.9265V89.4688H32.4074V71.5729H36.9265V78.7494H45.9518V71.5729H50.458Z" fill="white"/>
<path d="M68.0267 89.4688H53.8181V71.5729H65.0052C65.0052 71.9752 64.9922 72.3905 64.9922 72.7928C64.9922 73.4806 65.0052 74.1684 65.0313 74.8562H58.3372V78.6066H65.3439C65.4741 79.7097 65.6564 80.7998 65.8648 81.877H58.3372V86.1855H66.9197C67.2453 87.3015 67.623 88.3916 68.0267 89.4688Z" fill="white"/>
<path d="M32.0819 97.2943V112.672L18.4853 97.2943H12.6768V122.457H19.0193V106.34L33.0716 122.457H38.4243V97.2943H32.0819Z" fill="white"/>
<path d="M57.647 117.565C60.0563 117.565 61.9968 116.864 63.4555 115.45C64.9271 114.035 65.6565 112.192 65.6565 109.895C65.6565 107.598 64.9271 105.73 63.4555 104.328C61.9838 102.926 60.0433 102.226 57.647 102.226C55.2507 102.226 53.2841 102.926 51.7994 104.328C50.3278 105.73 49.5854 107.585 49.5854 109.895C49.5854 112.205 50.3278 114.035 51.7994 115.45C53.2711 116.864 55.2246 117.565 57.647 117.565ZM57.647 96.9698C61.9838 96.9698 65.5002 98.2675 68.183 100.85C70.8659 103.433 72.2073 106.443 72.2073 109.882C72.2073 113.321 70.8398 116.384 68.1179 118.941C65.396 121.497 61.9057 122.782 57.634 122.782C53.3623 122.782 49.8068 121.51 47.0979 118.967C44.3891 116.423 43.0346 113.399 43.0346 109.895C43.0346 106.391 44.376 103.433 47.0719 100.85C49.7678 98.2675 53.2841 96.9828 57.634 96.9828" fill="white"/>
<path d="M83.147 101.901V107.624H86.5071C87.575 107.624 88.4216 107.378 89.0467 106.872C89.6718 106.378 89.9844 105.665 89.9844 104.743C89.9844 102.849 88.7732 101.901 86.3508 101.901H83.147ZM76.8046 97.2943H88.1741C90.6356 97.2943 92.6412 97.995 94.191 99.4096C95.7278 100.824 96.5092 102.524 96.5092 104.536C96.5092 107.313 95.0505 109.363 92.1333 110.687C93.4096 111.258 94.6208 112.815 95.7799 115.333C96.9259 117.85 98.0459 120.225 99.1139 122.457H92.1593C91.7426 121.627 91.0263 120.044 89.9844 117.721C88.9555 115.398 88.0699 113.892 87.3276 113.231C86.5983 112.569 85.8038 112.244 84.9703 112.244H83.147V122.457H76.8046V97.2943Z" fill="white"/>
<path d="M123.78 97.2943V101.901H114.56V122.457H108.217V101.901H98.9966V97.2943H123.78Z" fill="white"/>
<path d="M153.539 97.2943V122.457H147.197V112.283H134.512V122.457H128.169V97.2943H134.512V107.404H147.197V97.2943H153.539Z" fill="white"/>
<path d="M181.839 114.788V120.277C178.661 121.951 175.314 122.782 171.837 122.782C167.318 122.782 163.723 121.549 161.041 119.083C158.358 116.618 157.016 113.581 157.016 109.96C157.016 106.339 158.423 103.277 161.249 100.759C164.075 98.2416 167.761 96.9698 172.319 96.9698C175.953 96.9698 179.026 97.7095 181.54 99.1889V104.795C178.453 103.082 175.536 102.226 172.775 102.226C170.014 102.226 167.852 102.939 166.133 104.38C164.414 105.82 163.554 107.637 163.554 109.869C163.554 112.101 164.401 113.944 166.094 115.398C167.787 116.851 169.962 117.578 172.605 117.578C173.921 117.578 175.184 117.409 176.395 117.059C177.607 116.721 179.417 115.969 181.826 114.801" fill="white"/>
<path d="M202.781 113.088L198.653 103.303L194.915 113.088H202.781ZM202.234 97.2943L213.538 122.457H206.714L204.617 117.487H193.209L191.307 122.457H184.587L194.876 97.2943H202.221H202.234Z" fill="white"/>
<path d="M31.5218 130.283H37.8642V144.571C37.8642 148.244 36.7703 151.034 34.5693 152.928C32.3683 154.823 29.2296 155.77 25.1533 155.77C21.0769 155.77 17.9904 154.81 15.7633 152.889C13.5363 150.969 12.4163 148.205 12.4163 144.61V130.296H18.7718V144.753C18.7718 146.505 19.3578 147.906 20.5169 148.97C21.676 150.021 23.1998 150.554 25.0882 150.554C26.9766 150.554 28.6045 150.008 29.7766 148.931C30.9488 147.854 31.5348 146.31 31.5348 144.324V130.296L31.5218 130.283Z" fill="white"/>
<path d="M68.183 130.283V155.446H62.8173L48.7649 139.328V155.446H42.4225V130.283H48.244L61.8405 145.661V130.283H68.183Z" fill="white"/>
<path d="M79.4874 130.283H73.145V155.446H79.4874V130.283Z" fill="white"/>
<path d="M108.387 130.283L96.6264 155.77H93.8784L81.5321 130.283H88.4476L95.1808 144.662L101.562 130.283H108.387Z" fill="white"/>
<path d="M129.107 150.839V155.446H110.327V130.283H128.847V134.89H116.67V140.172H128.287V144.779H116.67V150.839H129.107Z" fill="white"/>
<path d="M139.812 134.89V140.613H143.172C144.24 140.613 145.087 140.366 145.712 139.86C146.337 139.367 146.65 138.653 146.65 137.732C146.65 135.837 145.439 134.89 143.016 134.89H139.812ZM133.47 130.283H144.839C147.301 130.283 149.307 130.984 150.856 132.398C152.393 133.813 153.174 135.513 153.174 137.524C153.174 140.301 151.716 142.352 148.799 143.675C150.075 144.246 151.286 145.804 152.445 148.321C153.591 150.839 154.711 153.214 155.779 155.446H148.825C148.408 154.615 147.692 153.032 146.65 150.709C145.621 148.386 144.735 146.881 143.993 146.219C143.264 145.557 142.469 145.233 141.636 145.233H139.812V155.446H133.47V130.283Z" fill="white"/>
<path d="M175.51 131.905V136.823C172.137 135.318 169.441 134.565 167.435 134.565C166.289 134.565 165.39 134.76 164.713 135.136C164.036 135.513 163.697 136.019 163.697 136.642C163.697 137.122 163.945 137.576 164.427 138.004C164.909 138.433 166.094 138.991 167.982 139.678C169.871 140.366 171.368 141.002 172.501 141.586C173.634 142.17 174.611 143.001 175.432 144.065C176.252 145.129 176.656 146.492 176.656 148.114C176.656 150.437 175.757 152.292 173.973 153.681C172.176 155.057 169.818 155.757 166.888 155.757C163.723 155.757 160.663 154.953 157.707 153.331V147.906C159.413 149.035 160.91 149.853 162.226 150.372C163.541 150.891 164.935 151.15 166.393 151.15C168.881 151.15 170.131 150.372 170.131 148.827C170.131 148.295 169.884 147.802 169.389 147.335C168.894 146.868 167.696 146.297 165.794 145.622C163.893 144.947 162.382 144.324 161.275 143.753C160.168 143.182 159.204 142.352 158.397 141.288C157.589 140.223 157.186 138.848 157.186 137.174C157.186 135.007 158.071 133.268 159.829 131.944C161.588 130.62 163.945 129.958 166.901 129.958C169.623 129.958 172.501 130.607 175.523 131.905" fill="white"/>
<path d="M186.371 130.283H180.029V155.446H186.371V130.283Z" fill="white"/>
<path d="M214.737 130.283V134.89H205.516V155.446H199.173V134.89H189.953V130.283H214.737Z" fill="white"/>
<path d="M166.888 84.4471C166.797 82.8247 166.706 81.4748 166.68 80.8778C166.784 82.0719 166.862 83.266 166.888 84.4471Z" fill="#F4803C"/>
<path d="M240.914 89.4689H167.071C167.071 88.5604 167.031 87.5871 166.992 86.6268C166.966 85.913 166.927 85.2123 166.901 84.5504V84.4466C166.862 83.2656 166.797 82.0717 166.68 80.8778V80.6572L166.654 80.5274C163.88 49.5892 140.021 14.7319 91.5472 14.7319C79.253 14.7319 67.5318 17.1197 56.8134 21.4412C75.3589 11.2539 96.7045 5.453 119.417 5.453C174.142 5.453 220.91 39.1035 239.69 86.6138L240.914 89.4559V89.4689Z" fill="#F4803C"/>
<path d="M12.4033 169.059H242.177V167.515H12.4033" fill="white"/>
<path d="M18.5117 177.508V179.013H14.3439V181.596H18.5117V183.114H14.3439V187.488H12.4033V177.508H18.5117Z" fill="white"/>
<path d="M23.3821 180.687C24.0854 180.687 24.7105 180.83 25.2835 181.128C25.8566 181.414 26.2863 181.829 26.5989 182.348C26.9115 182.867 27.0677 183.464 27.0677 184.126C27.0677 184.788 26.9245 185.424 26.6249 185.943C26.3254 186.462 25.8826 186.877 25.3096 187.176C24.7235 187.474 24.0854 187.63 23.3951 187.63C22.7049 187.63 22.0537 187.474 21.4807 187.176C20.9076 186.877 20.4648 186.462 20.1783 185.943C19.8788 185.424 19.7355 184.814 19.7355 184.126C19.7355 183.438 19.8918 182.854 20.2044 182.335C20.5169 181.816 20.9597 181.414 21.5197 181.115C22.0797 180.83 22.7049 180.687 23.3951 180.687H23.3821ZM21.5588 184.126C21.5588 184.788 21.7281 185.32 22.0537 185.722C22.3793 186.125 22.8221 186.319 23.3691 186.319C23.9161 186.319 24.3979 186.125 24.7235 185.748C25.0491 185.372 25.2184 184.827 25.2184 184.113C25.2184 183.399 25.0491 182.919 24.7235 182.543C24.3849 182.18 23.9421 181.985 23.3691 181.985C22.8351 181.985 22.3923 182.18 22.0667 182.569C21.7281 182.958 21.5588 183.477 21.5588 184.113V184.126Z" fill="white"/>
<path d="M32.3032 180.687C32.5376 180.687 32.772 180.739 32.9934 180.843C33.2148 180.947 33.4883 181.128 33.7878 181.375L33.1627 182.906C32.6548 182.53 32.238 182.335 31.9255 182.335C31.652 182.335 31.3785 182.439 31.118 182.634C30.8576 182.841 30.6362 183.101 30.4799 183.438C30.3236 183.776 30.2454 184.1 30.2454 184.438V187.487H28.4873V180.817H30.2454V182.517H30.2715C30.5971 181.868 30.9096 181.414 31.2352 181.115C31.5608 180.83 31.9125 180.687 32.3032 180.687Z" fill="white"/>
<path d="M38.4896 180.687C39.0106 180.687 39.4404 180.804 39.792 181.051C40.1437 181.297 40.4172 181.609 40.5865 182.024C40.9642 181.557 41.3419 181.219 41.7197 181.012C42.0974 180.804 42.5011 180.687 42.957 180.687C43.6603 180.687 44.2334 180.921 44.6762 181.375C45.106 181.829 45.3274 182.452 45.3274 183.218V187.488H43.5691V183.503C43.5691 183.036 43.4649 182.673 43.2695 182.413C43.0742 182.141 42.7876 182.011 42.4099 182.011C41.8759 182.011 41.355 182.361 40.86 183.049V187.488H39.1018V183.478C39.1018 183.023 38.9976 182.66 38.7892 182.4C38.5808 182.141 38.2942 182.011 37.9426 182.011C37.656 182.011 37.3956 182.089 37.1481 182.258C36.9137 182.426 36.6532 182.686 36.3797 183.049V187.488H34.6214V180.817H36.3797V181.751C36.7053 181.388 37.0309 181.115 37.3565 180.947C37.6821 180.778 38.0728 180.687 38.5026 180.687H38.4896Z" fill="white"/>
<path d="M50.0412 180.687C51.031 180.687 51.7994 180.999 52.3855 181.635C52.9715 182.27 53.245 183.127 53.245 184.243V184.503H48.5045C48.5826 185.1 48.804 185.554 49.1686 185.878C49.5463 186.203 50.0543 186.358 50.7184 186.358C51.1352 186.358 51.5389 186.28 51.9296 186.138C52.3203 185.995 52.7241 185.774 53.1408 185.476V186.787C52.3594 187.345 51.4087 187.617 50.2887 187.617C49.2338 187.617 48.3742 187.306 47.697 186.67C47.0328 186.034 46.6942 185.19 46.6942 184.139C46.6942 183.088 47.0067 182.296 47.6189 181.648C48.244 180.999 49.0384 180.687 50.0412 180.687ZM51.578 183.438C51.5259 182.958 51.3826 182.569 51.1352 182.296C50.8878 182.024 50.5491 181.881 50.1063 181.881C49.6635 181.881 49.2989 182.011 49.0384 182.27C48.7779 182.53 48.5956 182.919 48.5305 183.425H51.591L51.578 183.438Z" fill="white"/>
<path d="M58.4544 180.687C58.6888 180.687 58.9233 180.739 59.1447 180.843C59.3661 180.947 59.6395 181.128 59.9391 181.375L59.314 182.906C58.806 182.53 58.3893 182.335 58.0767 182.335C57.8032 182.335 57.5297 182.439 57.2693 182.634C57.0088 182.841 56.7874 183.101 56.6311 183.438C56.4748 183.776 56.3967 184.1 56.3967 184.438V187.487H54.6385V180.817H56.3967V182.517H56.4227C56.7483 181.868 57.0609 181.414 57.3865 181.115C57.7121 180.83 58.0637 180.687 58.4544 180.687Z" fill="white"/>
<path d="M62.583 177.508V187.488H60.8247V177.508H62.583Z" fill="white"/>
<path d="M65.4482 180.817L67.0372 184.399L68.6392 180.817H70.5277L65.904 190.862H64.0155L66.1515 186.268L63.5466 180.817H65.4482Z" fill="white"/>
<path d="M77.7033 177.508V187.488H75.7627V177.508H77.7033Z" fill="white"/>
<path d="M88.2658 177.508V179.013H84.7102V187.488H82.7695V179.013H79.2139V177.508H88.2658Z" fill="white"/>
<path d="M91.4822 177.508L94.7774 181.44L98.0725 177.508H99.8048V187.488H97.8641V180.48H97.812L94.9206 183.997H94.6471L91.7557 180.48H91.7036V187.488H89.763V177.508H91.5082H91.4822Z" fill="white"/>
<path d="M107.944 177.508V183.322C107.944 183.919 108.035 184.386 108.217 184.749C108.4 185.1 108.686 185.398 109.09 185.619C109.494 185.853 109.976 185.956 110.51 185.956C111.109 185.956 111.604 185.853 112.021 185.632C112.437 185.411 112.737 185.126 112.932 184.749C113.128 184.373 113.219 183.854 113.219 183.192V177.508H115.159V183.439C115.159 184.788 114.756 185.814 113.948 186.54C113.141 187.267 111.994 187.618 110.523 187.618C109.598 187.618 108.79 187.449 108.113 187.125C107.436 186.8 106.915 186.32 106.55 185.697C106.186 185.074 106.016 184.347 106.016 183.504V177.495H107.957L107.944 177.508Z" fill="white"/>
<path d="M120.941 180.687C121.658 180.687 122.231 180.921 122.66 181.388C123.09 181.855 123.298 182.478 123.298 183.244V187.487H121.54V183.425C121.54 182.997 121.436 182.647 121.228 182.4C121.019 182.154 120.733 182.024 120.381 182.024C120.108 182.024 119.847 182.102 119.613 182.257C119.378 182.413 119.105 182.686 118.818 183.049V187.487H117.06V180.817H118.818V181.751C119.144 181.375 119.483 181.102 119.821 180.934C120.16 180.765 120.537 180.687 120.941 180.687Z" fill="white"/>
<path d="M125.955 177.728C126.229 177.728 126.463 177.832 126.659 178.027C126.854 178.222 126.958 178.455 126.958 178.728C126.958 179 126.867 179.221 126.672 179.428C126.476 179.636 126.242 179.727 125.968 179.727C125.695 179.727 125.473 179.623 125.265 179.428C125.07 179.221 124.965 179 124.965 178.728C124.965 178.455 125.07 178.222 125.265 178.027C125.46 177.832 125.695 177.741 125.955 177.741V177.728ZM126.828 180.817V187.488H125.07V180.817H126.828Z" fill="white"/>
<path d="M129.693 180.817L131.295 184.684L132.871 180.817H134.746L131.725 187.617H130.865L127.792 180.817H129.68H129.693Z" fill="white"/>
<path d="M138.653 180.687C139.643 180.687 140.411 180.999 140.997 181.635C141.57 182.257 141.857 183.127 141.857 184.243V184.503H137.116C137.195 185.1 137.416 185.554 137.781 185.878C138.145 186.203 138.666 186.358 139.33 186.358C139.747 186.358 140.151 186.28 140.542 186.138C140.932 185.995 141.336 185.774 141.753 185.476V186.787C140.971 187.345 140.021 187.617 138.901 187.617C137.846 187.617 136.986 187.306 136.309 186.67C135.645 186.034 135.306 185.19 135.306 184.139C135.306 183.088 135.619 182.296 136.231 181.648C136.856 180.999 137.65 180.687 138.653 180.687ZM140.203 183.438C140.151 182.958 140.008 182.569 139.76 182.296C139.513 182.024 139.174 181.881 138.731 181.881C138.289 181.881 137.924 182.011 137.663 182.27C137.39 182.53 137.221 182.919 137.155 183.425H140.216L140.203 183.438Z" fill="white"/>
<path d="M147.066 180.687C147.301 180.687 147.535 180.739 147.757 180.843C147.978 180.947 148.252 181.128 148.551 181.375L147.926 182.906C147.418 182.53 147.001 182.335 146.689 182.335C146.415 182.335 146.142 182.439 145.881 182.634C145.621 182.841 145.399 183.101 145.243 183.438C145.087 183.776 145.009 184.1 145.009 184.438V187.487H143.25V180.817H145.009V182.517H145.035C145.36 181.868 145.673 181.414 145.998 181.115C146.324 180.83 146.676 180.687 147.066 180.687Z" fill="white"/>
<path d="M151.547 180.687C151.911 180.687 152.263 180.726 152.588 180.817C152.914 180.895 153.253 181.038 153.617 181.219V182.621C153.279 182.4 152.927 182.232 152.536 182.102C152.159 181.972 151.807 181.907 151.507 181.907C151.26 181.907 151.052 181.959 150.908 182.05C150.765 182.141 150.687 182.283 150.687 182.452C150.687 182.556 150.752 182.647 150.869 182.751C150.986 182.854 151.312 183.036 151.846 183.296C152.614 183.685 153.148 184.035 153.461 184.36C153.774 184.684 153.93 185.074 153.93 185.541C153.93 186.19 153.708 186.696 153.253 187.059C152.797 187.422 152.198 187.617 151.429 187.617C150.947 187.617 150.505 187.565 150.088 187.461C149.671 187.358 149.333 187.228 149.059 187.085V185.619C149.919 186.099 150.648 186.332 151.234 186.332C151.533 186.332 151.781 186.28 151.963 186.177C152.146 186.073 152.237 185.93 152.237 185.748C152.237 185.645 152.198 185.554 152.133 185.463C152.067 185.372 151.963 185.294 151.833 185.203C151.703 185.113 151.286 184.892 150.583 184.554C150.049 184.295 149.645 184.022 149.385 183.711C149.124 183.412 148.994 183.049 148.994 182.634C148.994 182.037 149.228 181.57 149.684 181.219C150.153 180.869 150.752 180.687 151.507 180.687H151.547Z" fill="white"/>
<path d="M156.248 177.728C156.522 177.728 156.756 177.832 156.951 178.027C157.147 178.222 157.251 178.455 157.251 178.728C157.251 179 157.16 179.221 156.964 179.428C156.769 179.636 156.535 179.727 156.261 179.727C155.988 179.727 155.766 179.623 155.558 179.428C155.362 179.221 155.258 179 155.258 178.728C155.258 178.455 155.362 178.222 155.558 178.027C155.753 177.832 155.988 177.741 156.248 177.741V177.728ZM157.134 180.817V187.488H155.375V180.817H157.134Z" fill="white"/>
<path d="M160.793 179.039H160.937V180.817H163.229V182.141H160.937V185.217C160.937 185.515 161.028 185.762 161.21 185.943C161.393 186.125 161.64 186.216 161.953 186.216C162.369 186.216 162.838 186.073 163.372 185.775V187.176C162.734 187.462 162.135 187.592 161.575 187.592C160.819 187.592 160.233 187.384 159.804 186.982C159.387 186.566 159.165 186.021 159.165 185.321V182.128H158.123V181.842L160.78 179.026L160.793 179.039Z" fill="white"/>
<path d="M165.417 180.817L167.006 184.399L168.608 180.817H170.496L165.873 190.862H163.984L166.12 186.268L163.515 180.817H165.417Z" fill="white"/>
<path d="M171.694 185.528C172.072 185.528 172.384 185.671 172.606 185.943C172.827 186.216 172.945 186.605 172.945 187.072C172.945 187.695 172.736 188.254 172.319 188.734C171.902 189.214 171.381 189.513 170.756 189.616V189.24C171.212 188.851 171.447 188.357 171.447 187.734V187.514C170.886 187.41 170.626 187.085 170.626 186.54C170.626 186.255 170.73 186.021 170.926 185.826C171.134 185.632 171.381 185.528 171.681 185.528H171.694Z" fill="white"/>
<path d="M183.975 177.378C185.213 177.378 186.437 177.65 187.648 178.196V179.961C186.437 179.351 185.239 179.039 184.067 179.039C183.337 179.039 182.686 179.182 182.113 179.48C181.54 179.766 181.097 180.194 180.785 180.739C180.472 181.284 180.316 181.894 180.316 182.569C180.316 183.594 180.654 184.412 181.332 185.035C182.009 185.658 182.907 185.97 184.028 185.97C184.327 185.97 184.627 185.944 184.9 185.892C185.174 185.84 185.512 185.736 185.903 185.593V183.932H184.249V182.426H187.844V186.541C187.349 186.878 186.763 187.151 186.072 187.345C185.382 187.54 184.666 187.631 183.923 187.631C182.868 187.631 181.905 187.41 181.045 186.982C180.185 186.554 179.521 185.944 179.039 185.165C178.557 184.386 178.323 183.517 178.323 182.543C178.323 181.57 178.57 180.687 179.052 179.896C179.534 179.104 180.211 178.494 181.084 178.053C181.957 177.611 182.92 177.391 183.988 177.391L183.975 177.378Z" fill="white"/>
<path d="M191.398 180.817V184.944C191.398 185.372 191.503 185.709 191.724 185.93C191.945 186.151 192.232 186.267 192.584 186.267C192.883 186.267 193.17 186.177 193.443 185.995C193.717 185.813 193.938 185.554 194.107 185.229V180.804H195.865V187.474H194.107V186.566C193.469 187.254 192.779 187.604 192.037 187.604C191.294 187.604 190.747 187.371 190.304 186.903C189.862 186.436 189.64 185.826 189.64 185.074V180.804H191.398V180.817Z" fill="white"/>
<path d="M201.453 180.687C201.687 180.687 201.921 180.739 202.143 180.843C202.364 180.947 202.638 181.128 202.937 181.375L202.312 182.906C201.804 182.53 201.387 182.335 201.075 182.335C200.801 182.335 200.528 182.439 200.267 182.634C200.007 182.841 199.786 183.101 199.629 183.438C199.473 183.776 199.395 184.1 199.395 184.438V187.487H197.637V180.817H199.395V182.517H199.421C199.747 181.868 200.059 181.414 200.385 181.115C200.71 180.83 201.062 180.687 201.453 180.687Z" fill="white"/>
<path d="M205.464 180.817V184.944C205.464 185.372 205.568 185.709 205.789 185.93C206.011 186.151 206.297 186.267 206.649 186.267C206.949 186.267 207.235 186.177 207.509 185.995C207.782 185.813 208.003 185.554 208.173 185.229V180.804H209.931V187.474H208.173V186.566C207.535 187.254 206.844 187.604 206.102 187.604C205.36 187.604 204.813 187.371 204.37 186.903C203.927 186.436 203.706 185.826 203.706 185.074V180.804H205.464V180.817Z" fill="white"/>
<path d="M217.876 180.817V182.063H216.73C216.912 182.296 217.042 182.504 217.12 182.699C217.198 182.893 217.238 183.101 217.238 183.322C217.238 183.854 217.042 184.347 216.638 184.788C216.287 185.178 215.675 185.424 214.815 185.541C214.346 185.593 214.047 185.658 213.89 185.736C213.734 185.814 213.669 185.917 213.669 186.073C213.669 186.216 213.76 186.32 213.942 186.398C214.125 186.475 214.424 186.54 214.828 186.605C215.831 186.761 216.573 187.021 217.055 187.345C217.537 187.669 217.772 188.124 217.772 188.669C217.772 189.37 217.485 189.915 216.899 190.291C216.326 190.667 215.492 190.862 214.398 190.862C213.369 190.862 212.549 190.68 211.95 190.33C211.338 189.967 211.038 189.499 211.038 188.889C211.038 188.046 211.624 187.449 212.796 187.137C212.288 186.917 212.041 186.631 212.041 186.268C212.041 185.801 212.419 185.476 213.187 185.307V185.281C212.666 185.139 212.249 184.879 211.937 184.516C211.624 184.152 211.468 183.724 211.468 183.231C211.468 182.517 211.741 181.933 212.288 181.492C212.835 181.051 213.552 180.83 214.424 180.83H217.876V180.817ZM212.679 188.799C212.679 189.396 213.278 189.694 214.476 189.694C214.997 189.694 215.401 189.616 215.688 189.448C215.987 189.279 216.13 189.071 216.13 188.799C216.13 188.5 215.961 188.279 215.636 188.137C215.31 187.994 214.828 187.916 214.229 187.916C213.773 187.916 213.408 188.007 213.122 188.176C212.835 188.344 212.692 188.552 212.692 188.812L212.679 188.799ZM213.096 183.231C213.096 183.581 213.213 183.867 213.46 184.1C213.708 184.334 214.008 184.451 214.359 184.451C214.711 184.451 215.023 184.334 215.258 184.087C215.492 183.841 215.61 183.542 215.61 183.179C215.61 182.855 215.492 182.569 215.245 182.348C214.997 182.128 214.711 182.011 214.359 182.011C214.008 182.011 213.708 182.128 213.46 182.374C213.213 182.621 213.096 182.893 213.096 183.231Z" fill="white"/>
<path d="M222.72 180.687C222.954 180.687 223.189 180.739 223.41 180.843C223.632 180.947 223.905 181.128 224.205 181.375L223.58 182.906C223.072 182.53 222.655 182.335 222.342 182.335C222.069 182.335 221.795 182.439 221.535 182.634C221.274 182.841 221.053 183.101 220.897 183.438C220.74 183.776 220.662 184.1 220.662 184.438V187.487H218.904V180.817H220.662V182.517H220.688C221.014 181.868 221.327 181.414 221.652 181.115C221.978 180.83 222.329 180.687 222.72 180.687Z" fill="white"/>
<path d="M227.448 180.687C228.307 180.687 228.971 180.869 229.414 181.232C229.87 181.596 230.091 182.102 230.091 182.764V186.034C230.091 186.28 230.196 186.41 230.404 186.41C230.495 186.41 230.612 186.371 230.769 186.293C230.925 186.216 231.055 186.138 231.159 186.034V187.046C230.547 187.422 229.974 187.617 229.466 187.617C229.154 187.617 228.906 187.565 228.737 187.461C228.568 187.358 228.45 187.176 228.385 186.903C227.708 187.384 227.031 187.617 226.354 187.617C225.872 187.617 225.455 187.461 225.103 187.137C224.752 186.813 224.582 186.423 224.582 185.969C224.582 185.398 224.752 184.944 225.103 184.606C225.442 184.269 226.054 183.983 226.914 183.737L228.346 183.322V183.01C228.346 182.361 227.955 182.037 227.161 182.037C226.757 182.037 226.354 182.128 225.95 182.309C225.546 182.491 225.181 182.764 224.856 183.127V181.544C225.585 180.973 226.458 180.674 227.461 180.674L227.448 180.687ZM226.367 185.696C226.367 185.943 226.445 186.138 226.601 186.28C226.757 186.423 226.953 186.501 227.174 186.501C227.565 186.501 227.942 186.319 228.333 185.969V184.217C227.838 184.386 227.461 184.541 227.174 184.684C226.901 184.827 226.692 184.983 226.562 185.138C226.432 185.294 226.367 185.476 226.367 185.696Z" fill="white"/>
<path d="M236.004 180.687C236.525 180.687 236.955 180.804 237.307 181.051C237.658 181.297 237.932 181.609 238.101 182.024C238.479 181.557 238.857 181.219 239.234 181.012C239.612 180.804 240.016 180.687 240.472 180.687C241.175 180.687 241.748 180.921 242.191 181.375C242.634 181.829 242.842 182.452 242.842 183.218V187.488H241.084V183.503C241.084 183.036 240.98 182.673 240.784 182.413C240.589 182.141 240.302 182.011 239.925 182.011C239.391 182.011 238.87 182.361 238.375 183.049V187.488H236.616V183.478C236.616 183.023 236.512 182.66 236.304 182.4C236.095 182.141 235.809 182.011 235.457 182.011C235.171 182.011 234.91 182.089 234.663 182.258C234.415 182.426 234.168 182.686 233.894 183.049V187.488H232.136V180.817H233.894V181.751C234.22 181.388 234.546 181.115 234.871 180.947C235.197 180.778 235.587 180.687 236.017 180.687H236.004Z" fill="white"/>
</svg>
